<?xml version="1.0" standalone="no"?>
<!DOCTYPE svg PUBLIC "-//W3C//DTD SVG 20010904//EN"
 "http://www.w3.org/TR/2001/REC-SVG-20010904/DTD/svg10.dtd">
<svg version="1.0" xmlns="http://www.w3.org/2000/svg"
 width="300.000000pt" height="300.000000pt" viewBox="0 0 300.000000 300.000000"
 preserveAspectRatio="xMidYMid meet">
<metadata>
Created by potrace 1.15, written by Peter Selinger 2001-2017
</metadata>
<g transform="translate(0.000000,300.000000) scale(0.100000,-0.100000)"
fill="#000000" stroke="none">
<path d="M500 1505 l0 -195 65 0 64 0 3 84 3 85 70 -85 70 -84 53 0 c28 0 53
3 53 8 4 22 5 350 1 365 -4 14 -15 17 -63 17 l-58 0 -3 -87 -3 -88 -74 88 -75
87 -53 0 -53 0 0 -195z"/>
<path d="M940 1651 l0 -50 87 -3 86 -3 -86 -100 c-79 -91 -86 -104 -87 -142
l0 -43 175 0 175 0 0 50 0 49 -89 3 -89 3 89 105 c81 94 90 108 87 140 l-3 35
-172 3 -173 2 0 -49z"/>
<path d="M1310 1694 c0 -3 26 -42 58 -87 32 -45 61 -87 65 -93 5 -9 -62 -112
-126 -191 -7 -10 7 -13 66 -13 l75 0 32 50 c18 28 33 50 35 50 1 0 16 -22 33
-50 l31 -50 77 0 76 0 -24 33 c-13 17 -46 62 -72 100 l-48 67 59 83 c32 45 62
88 67 95 5 9 -9 12 -62 12 l-70 0 -32 -50 -33 -51 -34 51 -34 50 -69 0 c-39 0
-70 -3 -70 -6z"/>
<path d="M1730 1650 l0 -49 58 -3 57 -3 3 -142 3 -143 64 0 65 0 0 145 0 145
55 0 55 0 0 50 0 50 -180 0 -180 0 0 -50z"/>
<path d="M2204 1660 c-6 -39 -8 -40 -45 -40 -39 0 -39 0 -39 -40 0 -39 1 -40
36 -40 33 0 36 -2 30 -22 -3 -13 -6 -29 -6 -35 0 -8 -15 -13 -41 -13 l-40 0 3
-42 c3 -40 5 -43 36 -46 31 -3 32 -5 26 -38 l-6 -34 45 0 c44 0 46 1 49 32 2
25 9 33 31 39 26 7 27 6 27 -32 0 -39 0 -39 39 -39 40 0 51 11 51 51 0 10 6
19 13 20 6 1 23 2 37 2 22 2 25 7 28 45 l3 42 -36 0 c-30 0 -36 3 -31 16 3 9
6 24 6 35 0 16 7 19 40 19 l40 0 0 40 c0 39 -1 40 -35 40 l-35 0 6 40 7 40
-46 0 c-46 0 -46 0 -49 -37 -3 -33 -7 -38 -30 -41 -27 -3 -28 -1 -28 37 l0 41
-40 0 c-39 0 -40 -1 -46 -40z"/>
</g>
</svg>
